<?xml version="1.0"?><svg fill="#000000" xmlns="http://www.w3.org/2000/svg" viewBox="0 0 30 30">    <path d="M 5 4 C 4.447 4 4 4.447 4 5 C 4 5.553 4.447 6 5 6 L 25 6 C 25.553 6 26 5.553 26 5 C 26 4.447 25.553 4 25 4 L 5 4 z M 19 8 C 18.916 8 18.841672 8.0288281 18.763672 8.0488281 L 14.722656 9.0566406 C 14.308656 9.1776406 14 9.546 14 10 L 14 16 L 13 16 C 11.343 16 10 17.343 10 19 C 10 20.657 11.343 22 13 22 C 14.657 22 16 20.657 16 19 L 16 12.800781 L 19.224609 11.955078 C 19.665609 11.851078 20 11.473 20 11 L 20 9 C 20 8.448 19.552 8 19 8 z M 5 9 C 4.447 9 4 9.447 4 10 C 4 10.553 4.447 11 5 11 L 12 11 L 12 10 C 12 9.65 12.062828 9.314 12.173828 9 L 5 9 z M 22 9 L 22 11 L 25 11 C 25.553 11 26 10.553 26 10 C 26 9.447 25.553 9 25 9 L 22 9 z M 5 14 C 4.447 14 4 14.447 4 15 C 4 15.553 4.447 16 5 16 L 9.0195312 16 C 9.7405313 15.045 10.786 14.347609 12 14.099609 L 12 14 L 5 14 z M 19.308594 14 L 18 14.34375 L 18 16 L 25 16 C 25.553 16 26 15.553 26 15 C 26 14.447 25.553 14 25 14 L 19.308594 14 z M 5 19 C 4.447 19 4 19.447 4 20 C 4 20.553 4.447 21 5 21 L 8.4277344 21 C 8.1557344 20.388 8 19.713 8 19 L 5 19 z M 18 19 C 18 19.713 17.844266 20.388 17.572266 21 L 25 21 C 25.553 21 26 20.553 26 20 C 26 19.447 25.553 19 25 19 L 18 19 z M 5 24 C 4.447 24 4 24.447 4 25 C 4 25.553 4.447 26 5 26 L 25 26 C 25.553 26 26 25.553 26 25 C 26 24.447 25.553 24 25 24 L 5 24 z"/></svg>