<?xml version="1.0"?><svg fill="#000000" xmlns="http://www.w3.org/2000/svg" viewBox="0 0 30 30">    <path d="M 5.7050781 1 C 5.4550781 1 5.2449375 1.1855937 5.2109375 1.4335938 L 5.1210938 2.0878906 C 4.8390937 2.1378906 4.5715937 2.2175 4.3085938 2.3125 L 3.9003906 1.7832031 C 3.7473906 1.5852031 3.4718594 1.53125 3.2558594 1.65625 L 2.7441406 1.9511719 C 2.5281406 2.0761719 2.4382031 2.3422187 2.5332031 2.5742188 L 2.7890625 3.1972656 C 2.5750625 3.3782656 2.3782656 3.5750625 2.1972656 3.7890625 L 1.5742188 3.5332031 C 1.3422188 3.4382031 1.0761719 3.5281406 0.95117188 3.7441406 L 0.65625 4.2539062 C 0.53125 4.4709063 0.58520312 4.7473906 0.78320312 4.9003906 L 1.3125 5.3085938 C 1.2185 5.5725937 1.1378906 5.8400938 1.0878906 6.1210938 L 0.43359375 6.2109375 C 0.18559375 6.2439375 -3.7007434e-17 6.4550781 0 6.7050781 L 0 7.2949219 C 0 7.5449219 0.18559375 7.7550625 0.43359375 7.7890625 L 1.0878906 7.8789062 C 1.1378906 8.1609063 1.2175 8.4284062 1.3125 8.6914062 L 0.78320312 9.0996094 C 0.58520312 9.2526094 0.53125 9.5281406 0.65625 9.7441406 L 0.95117188 10.253906 C 1.0761719 10.470906 1.3422187 10.562797 1.5742188 10.466797 L 2.1972656 10.210938 C 2.3782656 10.424938 2.5750625 10.621734 2.7890625 10.802734 L 2.5332031 11.425781 C 2.4382031 11.657781 2.5281406 11.923828 2.7441406 12.048828 L 3.2539062 12.341797 C 3.4709063 12.466797 3.7473906 12.413844 3.9003906 12.214844 L 4.3085938 11.685547 C 4.5715937 11.780547 4.8390937 11.860156 5.1210938 11.910156 L 5.2109375 12.564453 C 5.2449375 12.814453 5.4550781 13 5.7050781 13 L 6.2949219 13 C 6.5449219 13 6.7550625 12.814406 6.7890625 12.566406 L 6.8789062 11.912109 C 7.1609063 11.862109 7.4284062 11.7825 7.6914062 11.6875 L 8.0996094 12.216797 C 8.2526094 12.414797 8.5290938 12.46875 8.7460938 12.34375 L 9.2558594 12.050781 C 9.4728594 11.925781 9.5627969 11.659734 9.4667969 11.427734 L 9.2109375 10.804688 C 9.4249375 10.623688 9.6217344 10.426891 9.8027344 10.212891 L 10.425781 10.46875 C 10.657781 10.56375 10.923828 10.471859 11.048828 10.255859 L 11.34375 9.7460938 C 11.46875 9.5290937 11.413844 9.2545625 11.214844 9.1015625 L 10.685547 8.6933594 C 10.780547 8.4303594 10.860156 8.1609063 10.910156 7.8789062 L 11.566406 7.7910156 C 11.815406 7.7560156 12 7.5449219 12 7.2949219 L 12 6.7050781 C 12 6.4550781 11.814406 6.2439375 11.566406 6.2109375 L 10.912109 6.1230469 C 10.862109 5.8410469 10.7825 5.5715937 10.6875 5.3085938 L 11.216797 4.9003906 C 11.414797 4.7473906 11.46875 4.4709062 11.34375 4.2539062 L 11.050781 3.7441406 C 10.925781 3.5271406 10.659734 3.4372031 10.427734 3.5332031 L 9.8027344 3.7890625 C 9.6217344 3.5750625 9.4249375 3.3782656 9.2109375 3.1972656 L 9.4667969 2.5742188 C 9.5617969 2.3422187 9.4718594 2.0761719 9.2558594 1.9511719 L 8.7441406 1.65625 C 8.5281406 1.53125 8.2526094 1.5852031 8.0996094 1.7832031 L 7.6914062 2.3144531 C 7.4284063 2.2194531 7.1599063 2.1378906 6.8789062 2.0878906 L 6.7890625 1.4335938 C 6.7560625 1.1855938 6.5449219 1 6.2949219 1 L 5.7050781 1 z M 6 4 C 7.657 4 9 5.343 9 7 C 9 8.657 7.657 10 6 10 C 4.343 10 3 8.657 3 7 C 3 5.343 4.343 4 6 4 z M 27.054688 4.0175781 L 20.580078 5.4042969 C 19.658078 5.6012969 19 6.416375 19 7.359375 L 19 18.712891 C 19 20.661891 13 19.032516 13 24.478516 C 13 25.478516 13.602797 27.998047 16.466797 27.998047 C 19.986797 27.999047 21 25.323516 21 22.353516 L 21 10.537109 L 27.080078 9.203125 C 27.617078 9.085125 28 8.6095938 28 8.0585938 L 28 4.78125 C 28 4.28325 27.540688 3.9125781 27.054688 4.0175781 z M 13.886719 6 C 13.954719 6.226 14 6.4600781 14 6.7050781 L 14 7.2949219 C 14 7.5409219 13.954719 7.774 13.886719 8 L 16 8 C 16.552 8 17 7.552 17 7 C 17 6.448 16.552 6 16 6 L 13.886719 6 z M 12.927734 11 L 12.78125 11.253906 C 12.46725 11.796906 11.963859 12.196766 11.380859 12.384766 C 11.310859 12.603766 11.200266 12.807 11.072266 13 L 16 13 C 16.552 13 17 12.552 17 12 C 17 11.448 16.552 11 16 11 L 12.927734 11 z M 4 16 C 3.448 16 3 16.448 3 17 C 3 17.552 3.448 18 4 18 L 16 18 C 16.552 18 17 17.552 17 17 C 17 16.448 16.552 16 16 16 L 4 16 z M 4 21 C 3.448 21 3 21.448 3 22 C 3 22.552 3.448 23 4 23 L 11.134766 23 C 11.279766 22.213 11.537094 21.552 11.871094 21 L 4 21 z"/></svg>