<?xml version="1.0"?><svg fill="#000000" xmlns="http://www.w3.org/2000/svg" viewBox="0 0 30 30">    <path d="M 4 6 A 1 1 0 0 0 3 7 A 1 1 0 0 0 3 7.0039062 L 3 15 L 3 22.996094 A 1 1 0 0 0 3 23 A 1 1 0 0 0 4 24 A 1 1 0 0 0 4.5917969 23.804688 L 4.59375 23.804688 A 1 1 0 0 0 4.6210938 23.783203 L 15 16.236328 L 15 22.996094 A 1 1 0 0 0 15 23 A 1 1 0 0 0 16 24 A 1 1 0 0 0 16.591797 23.804688 L 16.59375 23.804688 A 1 1 0 0 0 16.621094 23.783203 L 27.541016 15.841797 A 1 1 0 0 0 28 15 A 1 1 0 0 0 27.556641 14.169922 L 16.59375 6.1953125 A 1 1 0 0 0 16 6 A 1 1 0 0 0 15 7 A 1 1 0 0 0 15 7.0039062 L 15 13.765625 L 4.59375 6.1953125 A 1 1 0 0 0 4 6 z"/></svg>