<svg fill="#000000" xmlns="http://www.w3.org/2000/svg" viewBox="0 0 30 30"><path d="M 15 4 L 15 7 L 8 7 C 4.6983746 7 2 9.6983746 2 13 A 1.0001 1.0001 0 1 0 4 13 C 4 10.779625 5.7796254 9 8 9 L 15 9 L 15 12 L 22 8 L 15 4 z M 26.027344 4.25 L 24.058594 5.5917969 L 24.058594 7.2890625 L 25.927734 6.0273438 L 26.027344 6.0273438 L 26.027344 12 L 28 12 L 28 4.25 L 26.027344 4.25 z M 26.984375 15.986328 A 1.0001 1.0001 0 0 0 26 17 C 26 19.220375 24.220375 21 22 21 L 10 21 L 10 18 L 3 22 L 10 26 L 10 23 L 22 23 C 25.301625 23 28 20.301625 28 17 A 1.0001 1.0001 0 0 0 26.984375 15.986328 z"/></svg>