<?xml version="1.0"?><svg fill="#000000" xmlns="http://www.w3.org/2000/svg" viewBox="0 0 30 30">    <path d="M 9.5449219 4 C 5.9299219 4 3 6.9299219 3 10.544922 C 3 16.828892 10.277509 22.830792 13.693359 25.513672 A 2 2 0 0 0 13.763672 25.570312 A 2 2 0 0 0 13.796875 25.595703 A 2 2 0 0 0 15 26 A 2 2 0 0 0 16.203125 25.595703 L 16.203125 25.597656 C 16.209855 25.59238 16.219801 25.585381 16.226562 25.580078 C 16.231704 25.576045 16.23898 25.570455 16.244141 25.566406 A 2 2 0 0 0 16.263672 25.548828 C 19.663109 22.880904 27 16.852336 27 10.544922 C 27 6.9299219 24.070078 4 20.455078 4 C 19.166078 4 18.079609 4.4174062 17.224609 4.9414062 L 16 8 L 19 8 L 17 14 L 19 14 L 15 21 L 16 16 L 14 16 L 15 11 L 12 11 L 12.759766 4.9316406 C 11.906766 4.4126406 10.825922 4 9.5449219 4 z"/></svg>