<svg fill="#000000" xmlns="http://www.w3.org/2000/svg" viewBox="0 0 50 50"><path d="M 21 3 C 11.623004 3 4 10.623004 4 20 C 4 29.376996 11.623004 37 21 37 C 24.712381 37 28.139151 35.791079 30.9375 33.765625 L 44.085938 46.914062 L 46.914062 44.085938 L 33.886719 31.058594 C 36.443537 28.083001 38 24.223631 38 20 C 38 10.623004 30.376996 3 21 3 z M 21 5 C 29.296116 5 36 11.703884 36 20 C 36 28.296116 29.296116 35 21 35 C 12.703884 35 6 28.296116 6 20 C 6 11.703884 12.703884 5 21 5 z M 15 14 A 2 2 0 0 0 13 16 A 2 2 0 0 0 15 18 A 2 2 0 0 0 17 16 A 2 2 0 0 0 15 14 z M 27 14 A 2 2 0 0 0 25 16 A 2 2 0 0 0 27 18 A 2 2 0 0 0 29 16 A 2 2 0 0 0 27 14 z M 21 23 C 17.405052 23 15.261719 25.326172 15.261719 25.326172 A 1.0001 1.0001 0 1 0 16.738281 26.673828 C 16.738281 26.673828 18.244948 25 21 25 C 23.755052 25 25.261719 26.673828 25.261719 26.673828 A 1.0001 1.0001 0 1 0 26.738281 25.326172 C 26.738281 25.326172 24.594948 23 21 23 z"/></svg>